<svg height="512pt" viewBox="-31 0 512 512" width="512pt" xmlns="http://www.w3.org/2000/svg"><path d="m450 406v-60c0-5.683594-3.207031-10.867188-8.292969-13.417969l-55.53125-27.757812-21.050781-42.113281 46.582031-23.292969c5.085938-2.550781 8.292969-7.734375 8.292969-13.417969v-30c0-3.984375-1.582031-7.792969-4.394531-10.605469l-55.605469-55.605469v-47.578124l25.605469-25.605469c5.859375-5.859375 5.859375-15.351563 0-21.210938l-30-31c-2.8125-2.8125-6.621094-4.394531-10.605469-4.394531h-60c-5.683594 0-10.871094 3.207031-13.417969 8.289062l-27.761719 56.535157-55.53125 27.757812c-5.082031 2.550781-8.289062 7.734375-8.289062 13.417969v60c0 3.984375 1.582031 7.792969 4.394531 10.605469l55.605469 55.605469v47.578124l-25.605469 25.605469c-4.570312 4.570313-5.699219 11.542969-2.8125 17.3125l19.144531 38.292969h-35.726562c-5.683594 0-10.871094 3.207031-13.417969 8.289062l-30 60c-1.039062 2.082032-1.582031 4.382813-1.582031 6.710938v61c0 8.289062 6.707031 15 15 15h60c2.328125 0 4.628906-.542969 6.707031-1.582031l56.835938-28.417969h86.457031c3.984375 0 7.792969-1.582031 10.605469-4.394531l60-61c2.8125-2.8125 4.394531-6.621094 4.394531-10.605469zm0 0"/><path d="m64.394531 386.605469c4.578125 4.578125 11.554688 5.691406 17.3125 2.8125l60-30c5.085938-2.550781 8.292969-7.734375 8.292969-13.417969v-53.789062l25.605469-25.605469c2.8125-2.8125 4.394531-6.621094 4.394531-10.605469v-30c0-3.984375-1.582031-7.792969-4.394531-10.605469l-30-30c-5.859375-5.859375-15.351563-5.859375-21.210938 0l-25.605469 25.605469h-53.789062c-8.292969 0-15 6.710938-15 15v53.789062l-25.605469 25.605469c-5.859375 5.859375-5.859375 15.351563 0 21.210938zm0 0"/></svg>